<svg width="16" height="16" viewBox="0 0 16 16" fill="none" xmlns="http://www.w3.org/2000/svg">
<path d="M8.00588 11.678C8.00588 13.1794 7.29451 14.4986 6.20996 15.2713V8.08479C7.28868 8.85747 8.00588 10.1767 8.00588 11.678Z" fill="#9FA2B4"/>
<path d="M1.79592 8.08479V15.2713C0.717201 14.4986 0 13.1794 0 11.678C0.0058309 10.1767 0.717201 8.85747 1.79592 8.08479Z" fill="#9FA2B4"/>
<path d="M4.58898 13.9898C4.58898 14.3416 4.32659 14.6242 4.00005 14.6242C3.67935 14.6242 3.41113 14.3416 3.41113 13.9898C3.41113 13.638 3.67352 13.3553 4.00005 13.3553C4.32659 13.3616 4.58898 13.6443 4.58898 13.9898Z" fill="#9FA2B4"/>
<path d="M4.00604 7.375C3.48709 7.375 2.99146 7.48179 2.54248 7.67653V15.6985C2.99729 15.8933 3.49292 16 4.00604 16C4.52499 16 5.02061 15.8933 5.46959 15.6985V7.67025C5.01478 7.47551 4.52499 7.375 4.00604 7.375ZM4.00604 14.9573C3.74948 14.9573 3.51624 14.8442 3.35298 14.6557C3.20137 14.4798 3.10225 14.2474 3.10225 13.9898C3.10225 13.4559 3.50458 13.0224 4.00021 13.0224C4.49583 13.0224 4.89817 13.4559 4.89817 13.9898C4.89817 14.2474 4.80487 14.4861 4.64744 14.662C4.49 14.8442 4.2626 14.9573 4.00604 14.9573Z" fill="#9FA2B4"/>
<path d="M1.1665 11.6781C1.1665 10.9494 1.40557 10.2772 1.80207 9.74951V13.6066C1.39974 13.0852 1.1665 12.413 1.1665 11.6781Z" fill="#9FA2B4"/>
<path d="M4.58898 13.9898C4.58898 14.3416 4.32659 14.6242 4.00005 14.6242C3.67935 14.6242 3.41113 14.3416 3.41113 13.9898C3.41113 13.638 3.67352 13.3553 4.00005 13.3553C4.32659 13.3616 4.58898 13.6443 4.58898 13.9898Z" fill="#9FA2B4"/>
<path d="M5.46959 9.05849V14.3039C5.21886 14.4672 4.94481 14.5866 4.65327 14.6619C4.8107 14.486 4.904 14.2536 4.904 13.9898C4.904 13.4558 4.50166 13.0224 4.00604 13.0224C3.51041 13.0224 3.10808 13.4558 3.10808 13.9898C3.10808 14.2473 3.20137 14.4861 3.35881 14.6557C3.06726 14.5803 2.79321 14.4609 2.54248 14.2976V9.05221C2.96814 8.7758 3.47542 8.61247 4.00604 8.61247C4.54248 8.61875 5.04394 8.78208 5.46959 9.05849Z" fill="#9FA2B4"/>
<path d="M6.84553 11.6781C6.84553 12.4068 6.60646 13.0789 6.20996 13.6066V9.74951C6.60646 10.2772 6.84553 10.9494 6.84553 11.6781Z" fill="#9FA2B4"/>
<path d="M4.58898 13.9898C4.58898 14.3416 4.32659 14.6242 4.00005 14.6242C3.67935 14.6242 3.41113 14.3416 3.41113 13.9898C3.41113 13.638 3.67352 13.3553 4.00005 13.3553C4.32659 13.3616 4.58898 13.6443 4.58898 13.9898Z" fill="#9FA2B4"/>
<path d="M4.00604 7.375C3.48709 7.375 2.99146 7.48179 2.54248 7.67653V15.6985C2.99729 15.8933 3.49292 16 4.00604 16C4.52499 16 5.02061 15.8933 5.46959 15.6985V7.67025C5.01478 7.47551 4.52499 7.375 4.00604 7.375ZM4.00604 14.9573C3.74948 14.9573 3.51624 14.8442 3.35298 14.6557C3.20137 14.4798 3.10225 14.2474 3.10225 13.9898C3.10225 13.4559 3.50458 13.0224 4.00021 13.0224C4.49583 13.0224 4.89817 13.4559 4.89817 13.9898C4.89817 14.2474 4.80487 14.4861 4.64744 14.662C4.49 14.8442 4.2626 14.9573 4.00604 14.9573Z" fill="#9FA2B4"/>
<path d="M4.58898 13.9898C4.58898 14.3416 4.32659 14.6242 4.00005 14.6242C3.67935 14.6242 3.41113 14.3416 3.41113 13.9898C3.41113 13.638 3.67352 13.3553 4.00005 13.3553C4.32659 13.3616 4.58898 13.6443 4.58898 13.9898Z" fill="#9FA2B4"/>
<path d="M4.58898 13.9898C4.58898 14.3416 4.32659 14.6242 4.00005 14.6242C3.67935 14.6242 3.41113 14.3416 3.41113 13.9898C3.41113 13.638 3.67352 13.3553 4.00005 13.3553C4.32659 13.3616 4.58898 13.6443 4.58898 13.9898Z" fill="#9FA2B4"/>
<path d="M16 11.678C16 13.1794 15.2886 14.4986 14.2041 15.2713V8.08479C15.2886 8.85747 16 10.1767 16 11.678Z" fill="#9FA2B4"/>
<path d="M9.79592 8.08479V15.2713C8.7172 14.4986 8 13.1794 8 11.678C8.00583 10.1767 8.7172 8.85747 9.79592 8.08479Z" fill="#9FA2B4"/>
<path d="M12.589 13.9898C12.589 14.3416 12.3266 14.6242 12.0001 14.6242C11.6794 14.6242 11.4111 14.3416 11.4111 13.9898C11.4111 13.638 11.6735 13.3553 12.0001 13.3553C12.3266 13.3616 12.589 13.6443 12.589 13.9898Z" fill="#9FA2B4"/>
<path d="M12.006 7.375C11.4871 7.375 10.9915 7.48179 10.5425 7.67653V15.6985C10.9973 15.8933 11.4929 16 12.006 16C12.525 16 13.0206 15.8933 13.4696 15.6985V7.67025C13.0148 7.47551 12.5192 7.375 12.006 7.375ZM12.0002 14.9573C11.7436 14.9573 11.5104 14.8442 11.3471 14.6557C11.1955 14.4798 11.0964 14.2474 11.0964 13.9898C11.0964 13.4559 11.4988 13.0224 11.9944 13.0224C12.49 13.0224 12.8923 13.4559 12.8923 13.9898C12.8923 14.2474 12.799 14.4861 12.6416 14.662C12.49 14.8442 12.2568 14.9573 12.0002 14.9573Z" fill="#9FA2B4"/>
<path d="M9.16064 11.6781C9.16064 10.9494 9.39971 10.2772 9.79621 9.74951V13.6066C9.39971 13.0852 9.16064 12.413 9.16064 11.6781Z" fill="#9FA2B4"/>
<path d="M12.589 13.9898C12.589 14.3416 12.3266 14.6242 12.0001 14.6242C11.6794 14.6242 11.4111 14.3416 11.4111 13.9898C11.4111 13.638 11.6735 13.3553 12.0001 13.3553C12.3266 13.3616 12.589 13.6443 12.589 13.9898Z" fill="#9FA2B4"/>
<path d="M13.4696 9.05849V14.3039C13.2189 14.4672 12.9448 14.5866 12.6533 14.6619C12.8107 14.486 12.904 14.2536 12.904 13.9898C12.904 13.4558 12.5017 13.0224 12.006 13.0224C11.5104 13.0224 11.1081 13.4558 11.1081 13.9898C11.1081 14.2473 11.2014 14.4861 11.3588 14.6557C11.0673 14.5803 10.7932 14.4609 10.5425 14.2976V9.05221C10.9681 8.7758 11.4754 8.61247 12.006 8.61247C12.5367 8.61875 13.0439 8.78208 13.4696 9.05849Z" fill="#9FA2B4"/>
<path d="M14.8455 11.6781C14.8455 12.4068 14.6065 13.0789 14.21 13.6066V9.74951C14.6065 10.2772 14.8455 10.9494 14.8455 11.6781Z" fill="#9FA2B4"/>
<path d="M12.589 13.9898C12.589 14.3416 12.3266 14.6242 12.0001 14.6242C11.6794 14.6242 11.4111 14.3416 11.4111 13.9898C11.4111 13.638 11.6735 13.3553 12.0001 13.3553C12.3266 13.3616 12.589 13.6443 12.589 13.9898Z" fill="#9FA2B4"/>
<path d="M12.006 7.375C11.4871 7.375 10.9915 7.48179 10.5425 7.67653V15.6985C10.9973 15.8933 11.4929 16 12.006 16C12.525 16 13.0206 15.8933 13.4696 15.6985V7.67025C13.0148 7.47551 12.5192 7.375 12.006 7.375ZM12.0002 14.9573C11.7436 14.9573 11.5104 14.8442 11.3471 14.6557C11.1955 14.4798 11.0964 14.2474 11.0964 13.9898C11.0964 13.4559 11.4988 13.0224 11.9944 13.0224C12.49 13.0224 12.8923 13.4559 12.8923 13.9898C12.8923 14.2474 12.799 14.4861 12.6416 14.662C12.49 14.8442 12.2568 14.9573 12.0002 14.9573Z" fill="#9FA2B4"/>
<path d="M12.589 13.9898C12.589 14.3416 12.3266 14.6242 12.0001 14.6242C11.6794 14.6242 11.4111 14.3416 11.4111 13.9898C11.4111 13.638 11.6735 13.3553 12.0001 13.3553C12.3266 13.3616 12.589 13.6443 12.589 13.9898Z" fill="#9FA2B4"/>
<path d="M12.589 13.9898C12.589 14.3416 12.3266 14.6242 12.0001 14.6242C11.6794 14.6242 11.4111 14.3416 11.4111 13.9898C11.4111 13.638 11.6735 13.3553 12.0001 13.3553C12.3266 13.3616 12.589 13.6443 12.589 13.9898Z" fill="#9FA2B4"/>
<path d="M12 4.30939C12 5.81076 11.2886 7.12996 10.2041 7.90264V0.716141C11.2886 1.48881 12 2.80801 12 4.30939Z" fill="#9FA2B4"/>
<path d="M5.79592 0.716141V7.90264C4.7172 7.12996 4 5.81076 4 4.30939C4.00583 2.80801 4.7172 1.48881 5.79592 0.716141Z" fill="#9FA2B4"/>
<path d="M8.58897 6.62112C8.58897 6.97291 8.32659 7.25559 8.00005 7.25559C7.67935 7.25559 7.41113 6.97291 7.41113 6.62112C7.41113 6.26933 7.67352 5.98665 8.00005 5.98665C8.32659 5.98665 8.58897 6.26933 8.58897 6.62112Z" fill="#9FA2B4"/>
<path d="M8.00604 0C7.48709 0 6.99146 0.106792 6.54248 0.301531V8.32352C6.99729 8.51826 7.49292 8.62505 8.00604 8.62505C8.52499 8.62505 9.02061 8.51826 9.46959 8.32352V0.301531C9.01478 0.106792 8.51916 0 8.00604 0ZM8.00604 7.58854C7.74948 7.58854 7.51624 7.47546 7.35298 7.287C7.20137 7.11111 7.10225 6.87868 7.10225 6.62112C7.10225 6.08716 7.50458 5.65371 8.00021 5.65371C8.49583 5.65371 8.89817 6.08716 8.89817 6.62112C8.89817 6.87868 8.80487 7.11739 8.64744 7.29329C8.49 7.47546 8.2626 7.58854 8.00604 7.58854Z" fill="#9FA2B4"/>
<path d="M5.16064 4.3094C5.16064 3.5807 5.39971 2.90854 5.79621 2.38086V6.23795C5.39971 5.71027 5.16064 5.04438 5.16064 4.3094Z" fill="#9FA2B4"/>
<path d="M8.58897 6.62112C8.58897 6.97291 8.32659 7.25559 8.00005 7.25559C7.67935 7.25559 7.41113 6.97291 7.41113 6.62112C7.41113 6.26933 7.67352 5.98665 8.00005 5.98665C8.32659 5.98665 8.58897 6.26933 8.58897 6.62112Z" fill="#9FA2B4"/>
<path d="M9.46959 1.68984V6.93522C9.21886 7.09855 8.94481 7.21791 8.65327 7.29329C8.8107 7.1174 8.904 6.88497 8.904 6.62113C8.904 6.08716 8.50166 5.65371 8.00604 5.65371C7.51041 5.65371 7.10808 6.08716 7.10808 6.62113C7.10808 6.87868 7.20137 7.1174 7.35881 7.28701C7.06726 7.21162 6.79321 7.09227 6.54248 6.92894V1.68355C6.96814 1.40715 7.47542 1.24382 8.00604 1.24382C8.54248 1.2501 9.04394 1.40715 9.46959 1.68984Z" fill="#9FA2B4"/>
<path d="M10.8455 4.3094C10.8455 5.0381 10.6065 5.71027 10.21 6.23795V2.38086C10.6065 2.90854 10.8455 3.5807 10.8455 4.3094Z" fill="#9FA2B4"/>
<path d="M8.58897 6.62112C8.58897 6.97291 8.32659 7.25559 8.00005 7.25559C7.67935 7.25559 7.41113 6.97291 7.41113 6.62112C7.41113 6.26933 7.67352 5.98665 8.00005 5.98665C8.32659 5.98665 8.58897 6.26933 8.58897 6.62112Z" fill="#9FA2B4"/>
<path d="M8.00604 0C7.48709 0 6.99146 0.106792 6.54248 0.301531V8.32352C6.99729 8.51826 7.49292 8.62505 8.00604 8.62505C8.52499 8.62505 9.02061 8.51826 9.46959 8.32352V0.301531C9.01478 0.106792 8.51916 0 8.00604 0ZM8.00604 7.58854C7.74948 7.58854 7.51624 7.47546 7.35298 7.287C7.20137 7.11111 7.10225 6.87868 7.10225 6.62112C7.10225 6.08716 7.50458 5.65371 8.00021 5.65371C8.49583 5.65371 8.89817 6.08716 8.89817 6.62112C8.89817 6.87868 8.80487 7.11739 8.64744 7.29329C8.49 7.47546 8.2626 7.58854 8.00604 7.58854Z" fill="#9FA2B4"/>
<path d="M8.58897 6.62112C8.58897 6.97291 8.32659 7.25559 8.00005 7.25559C7.67935 7.25559 7.41113 6.97291 7.41113 6.62112C7.41113 6.26933 7.67352 5.98665 8.00005 5.98665C8.32659 5.98665 8.58897 6.26933 8.58897 6.62112Z" fill="#9FA2B4"/>
<path d="M10.1778 9.63447C10.1778 9.98626 9.91545 10.2689 9.58892 10.2689C9.26822 10.2689 9 9.98626 9 9.63447C9 9.28268 9.26239 9 9.58892 9C9.91545 9 10.1778 9.28268 10.1778 9.63447Z" fill="#9FA2B4"/>
</svg>
