<svg width="15" height="14" viewBox="0 0 15 14" fill="none" xmlns="http://www.w3.org/2000/svg">
<path d="M13.7411 0.304C13.7251 0.128 13.5971 0 13.4211 0H7.90109C7.72509 0 7.59709 0.128 7.58109 0.304L7.27709 5.68C7.18109 7.504 8.52509 9.072 10.3331 9.248V12.896H9.59709L4.74909 7.584C4.68509 7.52 4.60509 7.472 4.50909 7.472H0.669091C0.541091 7.472 0.429091 7.552 0.381091 7.664C0.381091 7.68 0.365091 7.696 0.365091 7.712H0.349091L0.109091 9.168C-0.0509091 10.192 -0.0349091 11.232 0.157091 12.24L0.349091 13.264C0.381091 13.424 0.509091 13.52 0.669091 13.52H5.58109H5.62909H12.6531V12.88H10.9731V9.248C12.7811 9.072 14.1411 7.504 14.0291 5.696L13.7411 0.304ZM8.68509 12.896H5.75709L1.38909 8.112H4.38109L8.74909 12.88H8.68509V12.896ZM8.01309 4.048L8.20509 0.64H13.1171L13.3091 4.048H8.01309Z" fill="#A4A6B3"/>
</svg>
