<svg width="45" height="32" viewBox="0 0 45 32" fill="none" xmlns="http://www.w3.org/2000/svg">
<circle cx="20" cy="16" r="16" fill="#A4A6B3"/>
<path d="M9.08 18.16H9.76C10.2933 18.16 11.0733 18.24 12.1 18.4C13.1267 18.56 13.8333 18.64 14.22 18.64C14.6067 18.64 14.9067 18.6267 15.12 18.6C15.3067 17.08 15.5533 15.64 15.86 14.28C16.1667 12.92 16.4 11.9 16.56 11.22C16.72 10.54 16.8533 10 16.96 9.6C17.0667 9.18667 17.12 8.96 17.12 8.92C17.12 8.86667 17.1067 8.84 17.08 8.84C16.9733 8.84 16.7867 9.02667 16.52 9.4L9.08 18.16ZM8.44 18.88C5.88 21.8 4.08 23.6933 3.04 24.56C2.65333 24.8533 2.08 25.04 1.32 25.12C1.28 25.12 1.13333 25.1467 0.88 25.2C0.613333 25.2533 0.4 25.28 0.24 25.28C0.08 25.28 -1.49012e-08 25.2267 -1.49012e-08 25.12C-1.49012e-08 24.9867 0.106667 24.8933 0.32 24.84C0.826667 24.6667 1.25333 24.4267 1.6 24.12C3.61333 22.36 5.71333 20.38 7.9 18.18C10.0867 15.9667 12.76 13.0133 15.92 9.32C16.1333 9.08 16.3067 8.88 16.44 8.72C16.5867 8.54667 16.7333 8.39333 16.88 8.26C17.0267 8.12667 17.1333 8.03333 17.2 7.98C17.2667 7.91333 17.3667 7.84 17.5 7.76C17.6467 7.68 17.74 7.62667 17.78 7.6C17.9533 7.52 18.1267 7.45333 18.3 7.4C18.4867 7.33333 18.6933 7.24667 18.92 7.14C19.16 7.02 19.3267 6.96 19.42 6.96C19.5133 6.96 19.56 7.01333 19.56 7.12V7.16C19.56 7.30667 19.4867 7.54667 19.34 7.88C19.1933 8.2 19.12 8.37333 19.12 8.4C18.7467 9.41333 18.3267 10.8933 17.86 12.84C17.4067 14.7867 17.0667 16.6267 16.84 18.36C17.7467 18.1333 18.5733 17.72 19.32 17.12C19.56 16.9333 19.7067 16.84 19.76 16.84C19.8133 16.84 19.84 16.88 19.84 16.96C19.84 17.0267 19.6933 17.18 19.4 17.42C19.1067 17.6467 18.7067 17.8933 18.2 18.16C17.7067 18.4267 17.24 18.6133 16.8 18.72C16.6667 19.88 16.6 20.7867 16.6 21.44C16.6 23.4667 17.0267 24.48 17.88 24.48C18.3733 24.48 19.0067 24.2467 19.78 23.78C20.5667 23.3 21.3533 22.7133 22.14 22.02C22.94 21.3267 23.5467 20.6667 23.96 20.04C24.0133 19.96 24.0667 19.92 24.12 19.92C24.1733 19.92 24.2 19.94 24.2 19.98C24.2 20.02 24.1867 20.0667 24.16 20.12C23.44 21.08 22.72 21.8733 22 22.5C21.2933 23.1267 20.4467 23.7267 19.46 24.3C18.4867 24.8733 17.5933 25.16 16.78 25.16C15.9667 25.16 15.44 24.9133 15.2 24.42C14.96 23.9133 14.84 23.1333 14.84 22.08C14.84 21.0133 14.9067 20.0133 15.04 19.08C13.84 19.2133 13 19.28 12.52 19.28C12.0533 19.28 11.38 19.2067 10.5 19.06C9.62 18.9133 9.07333 18.84 8.86 18.84C8.66 18.84 8.52 18.8533 8.44 18.88ZM27.8494 21.76C30.4894 18.1333 33.7294 14.7067 37.5694 11.48C40.0494 9.38667 42.116 7.98667 43.7694 7.28C44.036 7.17333 44.2227 7.12 44.3294 7.12C44.436 7.12 44.4894 7.16 44.4894 7.24C44.4894 7.26667 44.2227 7.42 43.6894 7.7C43.1694 7.96667 42.7627 8.18667 42.4694 8.36C42.176 8.52 41.5694 8.94 40.6494 9.62C39.7294 10.3 38.756 11.0933 37.7294 12C33.7027 15.5867 30.356 19.3 27.6894 23.14C27.5694 23.3133 27.4827 23.44 27.4294 23.52C27.376 23.5867 27.316 23.6667 27.2494 23.76C27.196 23.84 27.156 23.9 27.1294 23.94C27.116 23.9667 27.096 24 27.0694 24.04C27.0427 24.08 27.0227 24.1133 27.0094 24.14C26.996 24.1667 26.976 24.2 26.9494 24.24C26.896 24.32 26.836 24.4267 26.7694 24.56C26.7027 24.68 26.6227 24.7733 26.5294 24.84C26.4494 24.9067 26.3694 24.96 26.2894 25C26.2094 25.0533 26.1027 25.1133 25.9694 25.18L25.6894 25.32C25.1294 25.56 24.756 25.68 24.5694 25.68C24.3827 25.68 24.2894 25.5867 24.2894 25.4C24.2894 25.2133 24.396 24.8933 24.6094 24.44C24.836 23.9733 25.1294 23.4333 25.4894 22.82C25.8494 22.2067 26.076 21.8 26.1694 21.6C28.6227 16.48 29.8494 12.6 29.8494 9.96C29.8494 9.30667 29.7294 8.82 29.4894 8.5C29.2494 8.16667 28.9294 8 28.5294 8C27.5427 8 26.596 8.45333 25.6894 9.36C25.4227 9.62667 25.276 9.76 25.2494 9.76C25.1694 9.76 25.1294 9.72 25.1294 9.64C25.1294 9.56 25.276 9.37333 25.5694 9.08C26.156 8.46667 26.8027 8.01333 27.5094 7.72C28.216 7.42667 28.8094 7.28 29.2894 7.28C30.0627 7.28 30.6427 7.55333 31.0294 8.1C31.416 8.63333 31.6094 9.26667 31.6094 10C31.6094 12.2667 30.356 16.1867 27.8494 21.76Z" fill="white"/>
</svg>
